<svg xmlns="http://www.w3.org/2000/svg" viewBox="0 0 800 500">
  <defs>
    <linearGradient id="sky" x1="0" y1="0" x2="0" y2="1">
      <stop offset="0%" stop-color="#b7e3ff"/>
      <stop offset="100%" stop-color="#eaffd0"/>
    </linearGradient>
  </defs>
  <rect width="100%" height="100%" fill="url(#sky)"/>
  <g transform="translate(400,260)">
    <ellipse cx="0" cy="140" rx="350" ry="80" fill="#c2e59c"/>
    <g transform="translate(-140,-120) scale(1.2)">
      <circle cx="140" cy="80" r="70" fill="#ffd1a1" stroke="#7a4f2c" stroke-width="6"/>
      <rect x="75" y="-10" width="130" height="60" rx="8" fill="#5a7d3b" stroke="#2f4f2f" stroke-width="6"/>
      <rect x="70" y="40" width="140" height="110" rx="16" fill="#ffb347" stroke="#7a4f2c" stroke-width="6"/>
      <path d="M40 145 C120 120, 160 120, 240 145 L240 180 L40 180 Z" fill="#8bc34a" stroke="#4e7c2a" stroke-width="6"/>
      <circle cx="110" cy="80" r="8" fill="#333"/>
      <circle cx="170" cy="80" r="8" fill="#333"/>
      <path d="M120 105 Q140 120 160 105" stroke="#7a4f2c" stroke-width="6" fill="none"/>
      <rect x="60" y="70" width="20" height="70" rx="8" fill="#ffb347" stroke="#7a4f2c" stroke-width="6"/>
      <rect x="210" y="70" width="20" height="70" rx="8" fill="#ffb347" stroke="#7a4f2c" stroke-width="6"/>
      <rect x="100" y="150" width="80" height="80" rx="10" fill="#5a7d3b" stroke="#2f4f2f" stroke-width="6"/>
    </g>
    <g transform="translate(-360,170)">
      <rect x="0" y="0" width="720" height="40" fill="#8d6e63" rx="6"/>
      <rect x="0" y="20" width="720" height="70" fill="#795548" rx="6"/>
    </g>
  </g>
</svg>
